<svg xmlns="http://www.w3.org/2000/svg" xmlns:xlink="http://www.w3.org/1999/xlink" width="500" zoomAndPan="magnify" viewBox="0 0 375 374.999991" height="500" preserveAspectRatio="xMidYMid meet" version="1.0"><defs><g/><clipPath id="ce60bd97af"><path d="M 134 112 L 240.976562 112 L 240.976562 215 L 134 215 Z M 134 112 " clip-rule="nonzero"/></clipPath><clipPath id="d4e6c1de01"><path d="M 138.027344 138.632812 L 183.027344 138.632812 L 183.027344 145.980469 L 138.027344 145.980469 Z M 138.027344 138.632812 " clip-rule="nonzero"/></clipPath><clipPath id="ad62e1d333"><path d="M 144 115.980469 L 178 115.980469 L 178 137 L 144 137 Z M 144 115.980469 " clip-rule="nonzero"/></clipPath><clipPath id="d6ca96912b"><path d="M 187.5 162.222656 L 237.75 162.222656 L 237.75 212.472656 L 187.5 212.472656 Z M 187.5 162.222656 " clip-rule="nonzero"/></clipPath><clipPath id="6e2b78ee4c"><path d="M 190.5 115.980469 L 229.5 115.980469 L 229.5 151.230469 L 190.5 151.230469 Z M 190.5 115.980469 " clip-rule="nonzero"/></clipPath></defs><path fill="#6f3594" d="M 164.632812 106.628906 C 166.613281 106.628906 168.222656 105.023438 168.222656 103.042969 L 168.222656 96.089844 C 168.222656 87.101562 175.542969 79.78125 184.558594 79.78125 C 193.578125 79.78125 200.898438 87.101562 200.898438 96.089844 L 200.898438 103.042969 C 200.898438 105.023438 202.507812 106.628906 204.488281 106.628906 C 206.472656 106.628906 208.078125 105.023438 208.078125 103.042969 L 208.078125 97.066406 C 208.078125 84.519531 198.660156 73.492188 186.109375 72.660156 C 172.472656 71.769531 161.042969 82.625 161.042969 96.089844 L 161.042969 103.042969 C 161.042969 105.023438 162.648438 106.628906 164.632812 106.628906 Z M 164.632812 106.628906 " fill-opacity="1" fill-rule="nonzero"/><g clip-path="url(#ce60bd97af)"><path fill="#fb7a1f" d="M 240.128906 199.960938 L 232.230469 123.144531 C 231.597656 117.027344 226.457031 112.402344 220.3125 112.402344 L 148.808594 112.402344 C 142.664062 112.402344 137.523438 117.054688 136.890625 123.144531 L 134.910156 142.269531 C 133.589844 155.105469 145.792969 165.125 158.113281 161.363281 L 164.804688 159.324219 C 172.414062 157 180.914062 160.847656 183.898438 169.289062 C 184.933594 172.21875 184.789062 175.4375 183.871094 178.421875 L 180.914062 188.070312 C 176.835938 201.394531 186.800781 214.863281 200.726562 214.863281 L 226.6875 214.863281 C 234.699219 214.835938 240.960938 207.914062 240.128906 199.960938 Z M 240.128906 199.960938 " fill-opacity="1" fill-rule="nonzero"/></g><path fill="#6f3594" d="M 167.332031 167.539062 L 128.648438 179.339844 C 123.019531 181.0625 122.617188 188.875 128.046875 191.171875 L 137.265625 195.050781 C 142.144531 197.117188 146.050781 200.992188 148.117188 205.902344 L 151.996094 215.121094 C 154.292969 220.550781 162.105469 220.148438 163.828125 214.519531 L 175.628906 175.835938 C 177.210938 170.753906 172.441406 165.988281 167.332031 167.539062 Z M 167.332031 167.539062 " fill-opacity="1" fill-rule="nonzero"/><g clip-path="url(#d4e6c1de01)"><path fill="#6f3594" d="M 167.085938 144.179688 L 154.070312 144.179688 C 153.980469 144.179688 153.925781 144.085938 153.964844 144.007812 L 154.96875 142.078125 C 154.988281 142.039062 155.027344 142.015625 155.074219 142.015625 L 166.085938 142.015625 C 166.128906 142.015625 166.167969 142.039062 166.191406 142.078125 L 167.191406 144.007812 C 167.234375 144.085938 167.175781 144.179688 167.085938 144.179688 Z M 182.84375 144.398438 L 177.453125 139.011719 C 177.269531 138.824219 177.019531 138.722656 176.761719 138.722656 L 144.398438 138.722656 C 144.136719 138.722656 143.886719 138.824219 143.703125 139.011719 L 138.3125 144.398438 C 138.128906 144.582031 138.027344 144.832031 138.027344 145.09375 C 138.027344 145.636719 138.464844 146.074219 139.007812 146.074219 L 182.148438 146.074219 C 182.691406 146.074219 183.132812 145.636719 183.132812 145.09375 C 183.132812 144.832031 183.027344 144.582031 182.84375 144.398438 " fill-opacity="1" fill-rule="nonzero"/></g><g clip-path="url(#ad62e1d333)"><path fill="#6f3594" d="M 175.554688 115.988281 L 145.605469 115.988281 C 144.738281 115.988281 144.027344 116.699219 144.027344 117.566406 L 144.027344 135.347656 C 144.027344 136.210938 144.738281 136.921875 145.605469 136.921875 L 175.554688 136.921875 C 176.421875 136.921875 177.128906 136.210938 177.128906 135.347656 L 177.128906 117.566406 C 177.128906 116.699219 176.421875 115.988281 175.554688 115.988281 Z M 175.304688 117.8125 L 175.304688 135.097656 L 145.851562 135.097656 L 145.851562 117.8125 L 175.304688 117.8125 " fill-opacity="1" fill-rule="nonzero"/></g><g clip-path="url(#d6ca96912b)"><path fill="#6f3594" d="M 212.804688 212.835938 C 198.851562 212.835938 187.5 201.484375 187.5 187.53125 C 187.5 173.578125 198.851562 162.222656 212.804688 162.222656 C 226.761719 162.222656 238.113281 173.578125 238.113281 187.53125 C 238.113281 201.484375 226.761719 212.835938 212.804688 212.835938 Z M 212.804688 164.332031 C 200.015625 164.332031 189.609375 174.742188 189.609375 187.53125 C 189.609375 200.320312 200.015625 210.726562 212.804688 210.726562 C 225.597656 210.726562 236.003906 200.320312 236.003906 187.53125 C 236.003906 174.742188 225.597656 164.332031 212.804688 164.332031 Z M 212.804688 164.332031 " fill-opacity="1" fill-rule="nonzero"/></g><path fill="#6f3594" d="M 220.125 202.300781 C 217.980469 202.300781 215.777344 201.726562 214.015625 201.175781 C 210.554688 200.09375 207.355469 198.15625 204.765625 195.570312 C 201.289062 192.089844 198.914062 187.441406 198.253906 182.820312 C 197.960938 180.746094 197.789062 178.089844 199.085938 175.972656 C 200.300781 173.996094 202.496094 172.769531 204.816406 172.769531 C 205.222656 172.769531 205.617188 172.8125 205.992188 172.875 C 206.011719 172.878906 206.03125 172.882812 206.050781 172.890625 C 207.359375 173.132812 208.394531 174.25 208.578125 175.625 L 209.460938 182.214844 C 209.644531 183.605469 208.90625 184.984375 207.660156 185.5625 C 207.523438 185.625 207.382812 185.6875 207.242188 185.742188 C 207.976562 187.355469 208.988281 188.804688 210.257812 190.078125 C 211.527344 191.347656 212.980469 192.359375 214.59375 193.09375 C 214.644531 192.953125 214.707031 192.8125 214.769531 192.675781 C 215.351562 191.429688 216.730469 190.6875 218.121094 190.878906 L 224.710938 191.757812 C 226.09375 191.941406 227.222656 192.996094 227.453125 194.320312 C 227.523438 194.714844 227.570312 195.109375 227.570312 195.515625 C 227.570312 197.707031 226.5 199.765625 224.707031 201.023438 C 223.367188 201.964844 221.765625 202.300781 220.125 202.300781 Z M 204.816406 174.878906 C 203.226562 174.878906 201.714844 175.71875 200.882812 177.074219 C 199.9375 178.617188 200.097656 180.796875 200.34375 182.523438 C 200.9375 186.699219 203.09375 190.914062 206.257812 194.078125 C 208.605469 196.425781 211.503906 198.183594 214.644531 199.160156 C 218.859375 200.476562 221.753906 200.523438 223.496094 199.296875 C 224.707031 198.449219 225.460938 196.996094 225.460938 195.515625 C 225.460938 195.226562 225.425781 194.953125 225.378906 194.691406 C 225.304688 194.25 224.914062 193.910156 224.433594 193.847656 L 217.84375 192.964844 C 217.363281 192.910156 216.878906 193.140625 216.6875 193.558594 C 216.523438 193.914062 216.40625 194.296875 216.332031 194.699219 C 216.277344 195.007812 216.089844 195.273438 215.820312 195.429688 C 215.550781 195.585938 215.222656 195.613281 214.933594 195.507812 C 212.605469 194.648438 210.535156 193.324219 208.773438 191.566406 C 207.015625 189.808594 205.6875 187.734375 204.832031 185.40625 C 204.726562 185.113281 204.753906 184.785156 204.910156 184.515625 C 205.066406 184.246094 205.332031 184.058594 205.640625 184.003906 C 206.042969 183.933594 206.425781 183.816406 206.777344 183.652344 C 207.195312 183.457031 207.441406 182.980469 207.375 182.492188 L 206.488281 175.902344 C 206.425781 175.417969 206.082031 175.03125 205.65625 174.960938 C 205.582031 174.945312 205.511719 174.925781 205.445312 174.898438 C 205.382812 174.914062 205.105469 174.878906 204.816406 174.878906 Z M 204.816406 174.878906 " fill-opacity="1" fill-rule="nonzero"/><g clip-path="url(#6e2b78ee4c)"><path fill="#6f3594" d="M 202.710938 139.617188 C 202.597656 139.617188 202.5 139.660156 202.417969 139.742188 C 202.335938 139.820312 202.296875 139.921875 202.296875 140.035156 L 202.296875 145.238281 C 202.296875 145.351562 202.335938 145.453125 202.417969 145.53125 C 202.5 145.613281 202.597656 145.65625 202.710938 145.65625 C 202.828125 145.65625 202.925781 145.613281 203.007812 145.53125 C 203.089844 145.453125 203.128906 145.351562 203.128906 145.238281 L 203.128906 140.03125 C 203.128906 139.917969 203.085938 139.820312 203.007812 139.738281 C 202.925781 139.660156 202.828125 139.617188 202.710938 139.617188 Z M 205.078125 135.976562 C 204.960938 135.980469 204.863281 136.019531 204.785156 136.101562 C 204.703125 136.183594 204.660156 136.28125 204.660156 136.394531 L 204.660156 148.875 C 204.660156 148.988281 204.703125 149.089844 204.78125 149.167969 C 204.863281 149.25 204.960938 149.292969 205.078125 149.292969 C 205.191406 149.292969 205.292969 149.25 205.371094 149.167969 C 205.453125 149.089844 205.496094 148.988281 205.496094 148.875 L 205.496094 136.394531 C 205.496094 136.277344 205.453125 136.179688 205.371094 136.097656 C 205.292969 136.015625 205.191406 135.976562 205.078125 135.976562 Z M 209.851562 133.6875 C 209.734375 133.6875 209.636719 133.726562 209.554688 133.808594 C 209.472656 133.890625 209.433594 133.988281 209.433594 134.101562 L 209.433594 151.167969 C 209.433594 151.28125 209.472656 151.382812 209.554688 151.460938 C 209.636719 151.542969 209.734375 151.585938 209.851562 151.585938 C 209.964844 151.585938 210.0625 151.542969 210.144531 151.460938 C 210.226562 151.382812 210.265625 151.28125 210.265625 151.167969 L 210.265625 134.101562 C 210.269531 133.984375 210.226562 133.886719 210.144531 133.804688 C 210.0625 133.722656 209.964844 133.683594 209.851562 133.683594 Z M 200.09375 140.371094 C 199.976562 140.371094 199.878906 140.410156 199.796875 140.492188 C 199.714844 140.574219 199.675781 140.671875 199.675781 140.789062 L 199.675781 144.480469 C 199.675781 144.597656 199.714844 144.695312 199.796875 144.777344 C 199.878906 144.855469 199.976562 144.898438 200.09375 144.898438 C 200.207031 144.898438 200.304688 144.855469 200.386719 144.777344 C 200.46875 144.695312 200.507812 144.597656 200.507812 144.480469 L 200.507812 140.789062 C 200.507812 140.671875 200.46875 140.574219 200.386719 140.492188 C 200.304688 140.410156 200.207031 140.371094 200.09375 140.371094 Z M 191.792969 140.679688 C 191.421875 140.765625 191.113281 140.957031 190.871094 141.253906 C 190.628906 141.550781 190.503906 141.890625 190.496094 142.273438 L 190.496094 145.546875 C 190.503906 145.929688 190.628906 146.269531 190.871094 146.570312 C 191.113281 146.867188 191.421875 147.058594 191.792969 147.144531 C 192 147.195312 192.214844 147.070312 192.214844 146.902344 L 192.214844 140.921875 C 192.214844 140.753906 192 140.628906 191.792969 140.679688 Z M 207.535156 137.910156 C 207.421875 137.910156 207.324219 137.949219 207.242188 138.03125 C 207.160156 138.113281 207.121094 138.210938 207.121094 138.324219 L 207.121094 146.941406 C 207.121094 147.058594 207.160156 147.15625 207.242188 147.234375 C 207.324219 147.316406 207.421875 147.359375 207.535156 147.359375 C 207.652344 147.359375 207.75 147.316406 207.832031 147.234375 C 207.914062 147.15625 207.953125 147.058594 207.953125 146.941406 L 207.953125 138.324219 C 207.953125 138.210938 207.914062 138.113281 207.832031 138.03125 C 207.75 137.949219 207.652344 137.910156 207.535156 137.910156 Z M 227.792969 135.070312 L 227.808594 134.921875 L 227.808594 134.769531 L 227.8125 134.460938 C 227.8125 134.253906 227.824219 134.042969 227.820312 133.839844 L 227.800781 133.234375 C 227.796875 133.132812 227.796875 133.03125 227.789062 132.929688 L 227.761719 132.625 C 227.742188 132.421875 227.726562 132.21875 227.707031 132.015625 L 227.625 131.410156 C 227.609375 131.308594 227.597656 131.207031 227.578125 131.109375 L 227.519531 130.804688 C 227.371094 129.996094 227.160156 129.203125 226.890625 128.425781 L 226.675781 127.84375 C 226.605469 127.652344 226.515625 127.464844 226.441406 127.273438 L 226.320312 126.992188 C 226.28125 126.898438 226.226562 126.804688 226.1875 126.710938 L 225.914062 126.15625 C 225.527344 125.429688 225.097656 124.730469 224.628906 124.054688 C 224.15625 123.386719 223.652344 122.746094 223.113281 122.128906 L 222.914062 121.898438 C 222.84375 121.824219 222.773438 121.75 222.703125 121.671875 L 222.277344 121.222656 L 221.828125 120.789062 L 221.605469 120.574219 L 221.371094 120.371094 C 221.214844 120.234375 221.058594 120.09375 220.898438 119.964844 L 220.410156 119.578125 C 220.246094 119.449219 220.078125 119.328125 219.90625 119.207031 C 219.738281 119.089844 219.570312 118.964844 219.394531 118.851562 L 218.867188 118.515625 C 218.695312 118.398438 218.507812 118.304688 218.328125 118.203125 L 218.054688 118.050781 L 217.917969 117.972656 L 217.777344 117.902344 L 217.214844 117.625 C 217.03125 117.53125 216.835938 117.457031 216.644531 117.371094 C 216.453125 117.285156 216.261719 117.203125 216.0625 117.132812 L 215.476562 116.914062 C 215.277344 116.84375 215.078125 116.785156 214.878906 116.722656 L 214.578125 116.628906 C 214.476562 116.601562 214.375 116.578125 214.273438 116.550781 L 213.664062 116.398438 L 213.046875 116.273438 L 212.738281 116.214844 L 212.425781 116.171875 L 211.804688 116.085938 L 211.179688 116.035156 L 210.863281 116.007812 L 210.550781 115.996094 L 209.921875 115.980469 L 209.292969 115.996094 L 208.980469 116.007812 L 208.667969 116.03125 L 208.042969 116.085938 L 207.417969 116.171875 L 207.109375 116.214844 L 206.800781 116.277344 L 206.183594 116.398438 L 205.570312 116.550781 C 205.46875 116.578125 205.363281 116.601562 205.265625 116.628906 L 204.964844 116.722656 C 204.765625 116.785156 204.566406 116.84375 204.367188 116.914062 L 203.777344 117.132812 C 203.582031 117.203125 203.390625 117.289062 203.199219 117.371094 C 203.007812 117.453125 202.8125 117.53125 202.625 117.625 L 202.066406 117.902344 L 201.925781 117.972656 L 201.789062 118.050781 L 201.515625 118.203125 C 201.144531 118.398438 200.800781 118.628906 200.449219 118.851562 C 200.273438 118.964844 200.109375 119.089844 199.9375 119.207031 C 199.765625 119.328125 199.59375 119.445312 199.433594 119.578125 L 198.945312 119.964844 C 198.785156 120.097656 198.632812 120.234375 198.472656 120.371094 L 198.238281 120.574219 L 198.015625 120.789062 L 197.566406 121.21875 L 197.140625 121.671875 C 197.070312 121.75 197 121.824219 196.929688 121.898438 L 196.730469 122.128906 C 196.191406 122.746094 195.6875 123.386719 195.21875 124.054688 C 194.75 124.730469 194.320312 125.433594 193.933594 126.160156 C 193.753906 126.527344 193.566406 126.890625 193.40625 127.277344 C 193.328125 127.464844 193.242188 127.652344 193.167969 127.847656 L 192.957031 128.425781 C 192.683594 129.203125 192.472656 129.996094 192.320312 130.804688 L 192.265625 131.109375 C 192.246094 131.207031 192.234375 131.308594 192.21875 131.410156 L 192.136719 132.023438 C 192.113281 132.226562 192.097656 132.425781 192.082031 132.628906 L 192.054688 132.933594 C 192.046875 133.035156 192.046875 133.136719 192.042969 133.238281 L 192.023438 133.847656 C 192.023438 134.046875 192.023438 134.257812 192.03125 134.464844 L 192.035156 134.773438 L 192.035156 134.925781 L 192.050781 135.074219 L 192.117188 135.660156 C 192.292969 137.1875 192.472656 138.714844 192.667969 140.246094 L 192.667969 147.824219 C 192.667969 148.121094 192.726562 148.410156 192.839844 148.6875 C 192.953125 148.960938 193.117188 149.207031 193.328125 149.417969 C 193.542969 149.628906 193.785156 149.792969 194.0625 149.90625 C 194.339844 150.023438 194.625 150.078125 194.925781 150.078125 C 195.226562 150.078125 195.511719 150.023438 195.789062 149.90625 C 196.066406 149.792969 196.308594 149.628906 196.519531 149.417969 C 196.734375 149.207031 196.894531 148.960938 197.011719 148.6875 C 197.125 148.410156 197.183594 148.121094 197.183594 147.824219 L 197.183594 140.089844 C 197.183594 139.628906 197.054688 139.207031 196.796875 138.824219 C 196.539062 138.445312 196.195312 138.167969 195.769531 137.996094 C 195.34375 137.824219 194.902344 137.785156 194.453125 137.882812 C 194.003906 137.980469 193.621094 138.195312 193.300781 138.527344 C 193.289062 137.554688 193.269531 136.582031 193.25 135.613281 L 193.238281 135.027344 L 193.238281 134.882812 L 193.246094 134.742188 L 193.265625 134.464844 C 193.28125 134.28125 193.289062 134.09375 193.308594 133.910156 L 193.375 133.347656 C 193.386719 133.253906 193.394531 133.160156 193.410156 133.070312 L 193.457031 132.789062 C 193.488281 132.605469 193.515625 132.421875 193.546875 132.234375 L 193.667969 131.6875 C 193.6875 131.59375 193.707031 131.5 193.726562 131.40625 L 193.800781 131.136719 C 193.851562 130.957031 193.894531 130.777344 193.953125 130.597656 L 194.125 130.066406 C 194.179688 129.890625 194.25 129.71875 194.308594 129.542969 L 194.410156 129.28125 C 194.441406 129.195312 194.476562 129.109375 194.515625 129.023438 C 194.808594 128.34375 195.140625 127.679688 195.515625 127.039062 C 196.296875 125.761719 197.203125 124.578125 198.242188 123.5 L 198.433594 123.292969 C 198.5 123.226562 198.566406 123.164062 198.632812 123.097656 L 199.027344 122.710938 L 199.4375 122.339844 L 199.644531 122.15625 L 199.859375 121.980469 C 200 121.863281 200.140625 121.746094 200.285156 121.632812 L 200.726562 121.304688 C 200.875 121.191406 201.027344 121.09375 201.179688 120.992188 C 201.332031 120.890625 201.484375 120.785156 201.644531 120.691406 L 202.113281 120.414062 C 202.191406 120.363281 202.273438 120.320312 202.351562 120.277344 L 202.59375 120.148438 L 202.835938 120.015625 L 202.957031 119.953125 L 203.082031 119.894531 L 203.574219 119.660156 C 203.738281 119.582031 203.910156 119.519531 204.078125 119.445312 C 204.246094 119.375 204.414062 119.304688 204.585938 119.246094 L 205.101562 119.0625 C 205.273438 119.007812 205.449219 118.957031 205.625 118.90625 L 205.886719 118.828125 C 205.972656 118.804688 206.0625 118.785156 206.152344 118.761719 L 206.679688 118.632812 L 207.214844 118.53125 L 207.484375 118.480469 L 208.292969 118.375 L 208.835938 118.332031 L 209.109375 118.308594 L 209.386719 118.304688 L 209.929688 118.289062 L 210.476562 118.304688 L 210.75 118.308594 L 211.019531 118.332031 L 211.5625 118.375 L 212.105469 118.445312 L 212.375 118.480469 L 212.640625 118.53125 L 213.164062 118.636719 L 213.695312 118.769531 C 213.78125 118.789062 213.871094 118.808594 213.960938 118.835938 L 214.21875 118.914062 C 214.394531 118.964844 214.570312 119.011719 214.742188 119.070312 L 215.257812 119.253906 C 215.429688 119.3125 215.597656 119.382812 215.765625 119.453125 C 215.933594 119.523438 216.105469 119.585938 216.269531 119.667969 L 216.765625 119.902344 L 216.886719 119.960938 L 217.007812 120.023438 L 217.25 120.152344 C 217.574219 120.320312 217.886719 120.515625 218.203125 120.703125 C 218.359375 120.792969 218.507812 120.902344 218.664062 121.003906 C 218.820312 121.101562 218.972656 121.203125 219.117188 121.316406 L 219.558594 121.640625 C 219.703125 121.753906 219.84375 121.875 219.988281 121.988281 L 220.199219 122.164062 L 220.40625 122.351562 L 220.816406 122.722656 L 221.210938 123.109375 C 221.277344 123.171875 221.34375 123.234375 221.410156 123.300781 L 221.601562 123.507812 C 222.636719 124.589844 223.542969 125.769531 224.320312 127.050781 L 224.59375 127.535156 C 224.636719 127.613281 224.683594 127.695312 224.726562 127.777344 L 224.851562 128.023438 C 224.933594 128.191406 225.023438 128.355469 225.097656 128.523438 L 225.324219 129.03125 C 225.363281 129.117188 225.394531 129.203125 225.429688 129.289062 L 225.527344 129.550781 C 225.59375 129.722656 225.664062 129.898438 225.710938 130.074219 L 225.886719 130.605469 C 225.9375 130.785156 225.984375 130.964844 226.035156 131.144531 L 226.109375 131.414062 C 226.132812 131.507812 226.148438 131.601562 226.167969 131.691406 L 226.289062 132.242188 C 226.320312 132.425781 226.351562 132.613281 226.382812 132.796875 L 226.425781 133.074219 C 226.445312 133.167969 226.449219 133.261719 226.460938 133.355469 L 226.527344 133.917969 C 226.550781 134.101562 226.554688 134.285156 226.570312 134.472656 L 226.589844 134.75 L 226.601562 134.890625 L 226.601562 135.035156 L 226.589844 135.621094 C 226.570312 136.589844 226.550781 137.5625 226.535156 138.535156 C 226.089844 138.042969 225.535156 137.800781 224.875 137.800781 C 224.574219 137.800781 224.289062 137.855469 224.011719 137.972656 C 223.738281 138.085938 223.492188 138.246094 223.28125 138.457031 C 223.070312 138.667969 222.90625 138.910156 222.789062 139.1875 C 222.675781 139.460938 222.617188 139.75 222.613281 140.046875 L 222.613281 147.777344 C 222.617188 148.074219 222.671875 148.363281 222.789062 148.640625 C 222.902344 148.914062 223.066406 149.160156 223.277344 149.371094 C 223.488281 149.582031 223.734375 149.746094 224.007812 149.859375 C 224.285156 149.972656 224.574219 150.03125 224.871094 150.03125 C 225.171875 150.03125 225.457031 149.972656 225.734375 149.859375 C 226.007812 149.746094 226.253906 149.582031 226.464844 149.371094 C 226.675781 149.160156 226.839844 148.914062 226.953125 148.640625 C 227.070312 148.363281 227.128906 148.074219 227.128906 147.777344 L 227.128906 140.570312 L 227.160156 140.332031 C 227.359375 138.777344 227.542969 137.214844 227.722656 135.652344 Z M 228.050781 140.71875 C 227.84375 140.667969 227.632812 140.792969 227.632812 140.960938 L 227.632812 146.945312 C 227.632812 147.109375 227.84375 147.234375 228.050781 147.183594 C 228.425781 147.097656 228.730469 146.90625 228.972656 146.609375 C 229.214844 146.3125 229.335938 145.972656 229.34375 145.589844 L 229.34375 142.316406 C 229.335938 141.933594 229.214844 141.59375 228.972656 141.296875 C 228.730469 141 228.425781 140.808594 228.050781 140.722656 Z M 212.308594 137.910156 C 212.195312 137.910156 212.097656 137.949219 212.015625 138.03125 C 211.933594 138.113281 211.890625 138.210938 211.890625 138.324219 L 211.890625 146.941406 C 211.890625 147.058594 211.933594 147.15625 212.015625 147.234375 C 212.097656 147.316406 212.195312 147.359375 212.308594 147.359375 C 212.425781 147.359375 212.523438 147.316406 212.605469 147.234375 C 212.683594 147.15625 212.726562 147.058594 212.726562 146.941406 L 212.726562 138.324219 C 212.726562 138.210938 212.683594 138.113281 212.605469 138.03125 C 212.523438 137.949219 212.425781 137.910156 212.308594 137.910156 Z M 219.753906 140.371094 C 219.636719 140.371094 219.539062 140.410156 219.457031 140.492188 C 219.378906 140.574219 219.335938 140.671875 219.335938 140.789062 L 219.335938 144.480469 C 219.335938 144.597656 219.378906 144.695312 219.460938 144.777344 C 219.539062 144.855469 219.640625 144.898438 219.753906 144.898438 C 219.867188 144.898438 219.96875 144.855469 220.046875 144.777344 C 220.128906 144.695312 220.171875 144.597656 220.171875 144.480469 L 220.171875 140.789062 C 220.171875 140.671875 220.128906 140.574219 220.046875 140.492188 C 219.96875 140.410156 219.867188 140.371094 219.753906 140.371094 Z M 214.769531 135.976562 C 214.652344 135.976562 214.554688 136.015625 214.472656 136.097656 C 214.390625 136.179688 214.351562 136.277344 214.351562 136.394531 L 214.351562 148.875 C 214.351562 148.988281 214.390625 149.089844 214.472656 149.167969 C 214.554688 149.25 214.652344 149.292969 214.769531 149.292969 C 214.882812 149.292969 214.980469 149.25 215.0625 149.167969 C 215.144531 149.089844 215.183594 148.988281 215.183594 148.875 L 215.183594 136.394531 C 215.183594 136.277344 215.144531 136.179688 215.0625 136.097656 C 214.980469 136.015625 214.882812 135.976562 214.769531 135.976562 Z M 217.132812 139.617188 C 217.019531 139.617188 216.917969 139.660156 216.839844 139.742188 C 216.757812 139.820312 216.714844 139.921875 216.714844 140.035156 L 216.714844 145.238281 C 216.714844 145.351562 216.757812 145.453125 216.839844 145.53125 C 216.917969 145.613281 217.019531 145.65625 217.132812 145.65625 C 217.25 145.65625 217.347656 145.613281 217.429688 145.53125 C 217.507812 145.453125 217.550781 145.351562 217.550781 145.238281 L 217.550781 140.03125 C 217.550781 139.917969 217.507812 139.820312 217.425781 139.738281 C 217.34375 139.660156 217.246094 139.617188 217.132812 139.617188 Z M 217.132812 139.617188 " fill-opacity="1" fill-rule="nonzero"/></g><g fill="#ef8121" fill-opacity="0.4"><g transform="translate(59.413459, 275.5276)"><g><path d="M 13.515625 0.4375 C 9.660156 0.4375 6.726562 -0.734375 4.71875 -3.078125 C 2.71875 -5.429688 1.71875 -8.742188 1.71875 -13.015625 L 1.71875 -35.75 C 1.71875 -39.863281 2.71875 -42.96875 4.71875 -45.0625 C 6.726562 -47.15625 9.660156 -48.203125 13.515625 -48.203125 C 17.367188 -48.203125 20.296875 -47.15625 22.296875 -45.0625 C 24.296875 -42.96875 25.296875 -39.863281 25.296875 -35.75 L 25.296875 -13.015625 C 25.296875 -8.710938 24.296875 -5.394531 22.296875 -3.0625 C 20.296875 -0.726562 17.367188 0.4375 13.515625 0.4375 Z M 13.515625 -8.34375 C 14.359375 -8.34375 14.925781 -8.710938 15.21875 -9.453125 C 15.519531 -10.191406 15.671875 -11.226562 15.671875 -12.5625 L 15.671875 -35.90625 C 15.671875 -36.945312 15.53125 -37.789062 15.25 -38.4375 C 14.976562 -39.09375 14.414062 -39.421875 13.5625 -39.421875 C 11.96875 -39.421875 11.171875 -38.210938 11.171875 -35.796875 L 11.171875 -12.515625 C 11.171875 -11.140625 11.335938 -10.097656 11.671875 -9.390625 C 12.003906 -8.691406 12.617188 -8.34375 13.515625 -8.34375 Z M 13.515625 -8.34375 "/></g></g></g><g fill="#ef8121" fill-opacity="0.4"><g transform="translate(86.426297, 275.5276)"><g><path d="M 1.953125 -40.6875 L 11.671875 -40.6875 L 11.671875 -35.53125 C 12.078125 -37.195312 12.78125 -38.546875 13.78125 -39.578125 C 14.78125 -40.617188 16.117188 -41.140625 17.796875 -41.140625 C 20.535156 -41.140625 22.5625 -40.296875 23.875 -38.609375 C 25.1875 -36.921875 25.84375 -34.519531 25.84375 -31.40625 L 25.84375 0 L 16.28125 0 L 16.28125 -30.40625 C 16.28125 -31.300781 16.101562 -32.0625 15.75 -32.6875 C 15.40625 -33.320312 14.863281 -33.640625 14.125 -33.640625 C 13.125 -33.640625 12.460938 -33.179688 12.140625 -32.265625 C 11.828125 -31.359375 11.671875 -30.144531 11.671875 -28.625 L 11.671875 0 L 1.953125 0 Z M 1.953125 -40.6875 "/></g></g></g><g fill="#ef8121" fill-opacity="0.4"><g transform="translate(114.161704, 275.5276)"><g><path d="M 1.953125 0 L 1.953125 -48.03125 L 11.84375 -48.03125 L 11.84375 0 Z M 1.953125 0 "/></g></g></g><g fill="#ef8121" fill-opacity="0.4"><g transform="translate(127.946032, 275.5276)"><g><path d="M 1.890625 -43.421875 L 1.890625 -50.203125 L 11.625 -50.203125 L 11.625 -43.421875 Z M 1.890625 0 L 1.890625 -40.6875 L 11.625 -40.6875 L 11.625 0 Z M 1.890625 0 "/></g></g></g><g fill="#ef8121" fill-opacity="0.4"><g transform="translate(141.452451, 275.5276)"><g><path d="M 1.953125 -40.6875 L 11.671875 -40.6875 L 11.671875 -35.53125 C 12.078125 -37.195312 12.78125 -38.546875 13.78125 -39.578125 C 14.78125 -40.617188 16.117188 -41.140625 17.796875 -41.140625 C 20.535156 -41.140625 22.5625 -40.296875 23.875 -38.609375 C 25.1875 -36.921875 25.84375 -34.519531 25.84375 -31.40625 L 25.84375 0 L 16.28125 0 L 16.28125 -30.40625 C 16.28125 -31.300781 16.101562 -32.0625 15.75 -32.6875 C 15.40625 -33.320312 14.863281 -33.640625 14.125 -33.640625 C 13.125 -33.640625 12.460938 -33.179688 12.140625 -32.265625 C 11.828125 -31.359375 11.671875 -30.144531 11.671875 -28.625 L 11.671875 0 L 1.953125 0 Z M 1.953125 -40.6875 "/></g></g></g><g fill="#ef8121" fill-opacity="0.4"><g transform="translate(169.187858, 275.5276)"><g><path d="M 13.34375 0.4375 C 9.15625 0.4375 6.148438 -0.707031 4.328125 -3 C 2.515625 -5.300781 1.609375 -8.726562 1.609375 -13.28125 L 1.609375 -29.625 C 1.609375 -33.375 2.679688 -36.226562 4.828125 -38.1875 C 6.984375 -40.15625 9.988281 -41.140625 13.84375 -41.140625 C 21.664062 -41.140625 25.578125 -37.300781 25.578125 -29.625 L 25.578125 -26.6875 C 25.578125 -23.71875 25.539062 -21.304688 25.46875 -19.453125 L 11.34375 -19.453125 L 11.34375 -11.5625 C 11.34375 -10.15625 11.488281 -9.050781 11.78125 -8.25 C 12.082031 -7.457031 12.710938 -7.0625 13.671875 -7.0625 C 14.410156 -7.0625 14.9375 -7.28125 15.25 -7.71875 C 15.570312 -8.164062 15.757812 -8.675781 15.8125 -9.25 C 15.875 -9.832031 15.90625 -10.675781 15.90625 -11.78125 L 15.90625 -15.734375 L 25.578125 -15.734375 L 25.578125 -13.390625 C 25.578125 -8.648438 24.65625 -5.160156 22.8125 -2.921875 C 20.976562 -0.679688 17.820312 0.4375 13.34375 0.4375 Z M 15.90625 -24.296875 L 15.90625 -29.515625 C 15.90625 -32.441406 15.179688 -33.90625 13.734375 -33.90625 C 12.097656 -33.90625 11.28125 -32.441406 11.28125 -29.515625 L 11.28125 -24.296875 Z M 15.90625 -24.296875 "/></g></g></g><g fill="#fb7a1f" fill-opacity="1"><g transform="translate(59.413459, 275.5276)"><g><path d="M 13.515625 0.4375 C 9.660156 0.4375 6.726562 -0.734375 4.71875 -3.078125 C 2.71875 -5.429688 1.71875 -8.742188 1.71875 -13.015625 L 1.71875 -35.75 C 1.71875 -39.863281 2.71875 -42.96875 4.71875 -45.0625 C 6.726562 -47.15625 9.660156 -48.203125 13.515625 -48.203125 C 17.367188 -48.203125 20.296875 -47.15625 22.296875 -45.0625 C 24.296875 -42.96875 25.296875 -39.863281 25.296875 -35.75 L 25.296875 -13.015625 C 25.296875 -8.710938 24.296875 -5.394531 22.296875 -3.0625 C 20.296875 -0.726562 17.367188 0.4375 13.515625 0.4375 Z M 13.515625 -8.34375 C 14.359375 -8.34375 14.925781 -8.710938 15.21875 -9.453125 C 15.519531 -10.191406 15.671875 -11.226562 15.671875 -12.5625 L 15.671875 -35.90625 C 15.671875 -36.945312 15.53125 -37.789062 15.25 -38.4375 C 14.976562 -39.09375 14.414062 -39.421875 13.5625 -39.421875 C 11.96875 -39.421875 11.171875 -38.210938 11.171875 -35.796875 L 11.171875 -12.515625 C 11.171875 -11.140625 11.335938 -10.097656 11.671875 -9.390625 C 12.003906 -8.691406 12.617188 -8.34375 13.515625 -8.34375 Z M 13.515625 -8.34375 "/></g></g></g><g fill="#fb7a1f" fill-opacity="1"><g transform="translate(86.426297, 275.5276)"><g><path d="M 1.953125 -40.6875 L 11.671875 -40.6875 L 11.671875 -35.53125 C 12.078125 -37.195312 12.78125 -38.546875 13.78125 -39.578125 C 14.78125 -40.617188 16.117188 -41.140625 17.796875 -41.140625 C 20.535156 -41.140625 22.5625 -40.296875 23.875 -38.609375 C 25.1875 -36.921875 25.84375 -34.519531 25.84375 -31.40625 L 25.84375 0 L 16.28125 0 L 16.28125 -30.40625 C 16.28125 -31.300781 16.101562 -32.0625 15.75 -32.6875 C 15.40625 -33.320312 14.863281 -33.640625 14.125 -33.640625 C 13.125 -33.640625 12.460938 -33.179688 12.140625 -32.265625 C 11.828125 -31.359375 11.671875 -30.144531 11.671875 -28.625 L 11.671875 0 L 1.953125 0 Z M 1.953125 -40.6875 "/></g></g></g><g fill="#fb7a1f" fill-opacity="1"><g transform="translate(114.161704, 275.5276)"><g><path d="M 1.953125 0 L 1.953125 -48.03125 L 11.84375 -48.03125 L 11.84375 0 Z M 1.953125 0 "/></g></g></g><g fill="#fb7a1f" fill-opacity="1"><g transform="translate(127.946032, 275.5276)"><g><path d="M 1.890625 -43.421875 L 1.890625 -50.203125 L 11.625 -50.203125 L 11.625 -43.421875 Z M 1.890625 0 L 1.890625 -40.6875 L 11.625 -40.6875 L 11.625 0 Z M 1.890625 0 "/></g></g></g><g fill="#fb7a1f" fill-opacity="1"><g transform="translate(141.452451, 275.5276)"><g><path d="M 1.953125 -40.6875 L 11.671875 -40.6875 L 11.671875 -35.53125 C 12.078125 -37.195312 12.78125 -38.546875 13.78125 -39.578125 C 14.78125 -40.617188 16.117188 -41.140625 17.796875 -41.140625 C 20.535156 -41.140625 22.5625 -40.296875 23.875 -38.609375 C 25.1875 -36.921875 25.84375 -34.519531 25.84375 -31.40625 L 25.84375 0 L 16.28125 0 L 16.28125 -30.40625 C 16.28125 -31.300781 16.101562 -32.0625 15.75 -32.6875 C 15.40625 -33.320312 14.863281 -33.640625 14.125 -33.640625 C 13.125 -33.640625 12.460938 -33.179688 12.140625 -32.265625 C 11.828125 -31.359375 11.671875 -30.144531 11.671875 -28.625 L 11.671875 0 L 1.953125 0 Z M 1.953125 -40.6875 "/></g></g></g><g fill="#fb7a1f" fill-opacity="1"><g transform="translate(169.187858, 275.5276)"><g><path d="M 13.34375 0.4375 C 9.15625 0.4375 6.148438 -0.707031 4.328125 -3 C 2.515625 -5.300781 1.609375 -8.726562 1.609375 -13.28125 L 1.609375 -29.625 C 1.609375 -33.375 2.679688 -36.226562 4.828125 -38.1875 C 6.984375 -40.15625 9.988281 -41.140625 13.84375 -41.140625 C 21.664062 -41.140625 25.578125 -37.300781 25.578125 -29.625 L 25.578125 -26.6875 C 25.578125 -23.71875 25.539062 -21.304688 25.46875 -19.453125 L 11.34375 -19.453125 L 11.34375 -11.5625 C 11.34375 -10.15625 11.488281 -9.050781 11.78125 -8.25 C 12.082031 -7.457031 12.710938 -7.0625 13.671875 -7.0625 C 14.410156 -7.0625 14.9375 -7.28125 15.25 -7.71875 C 15.570312 -8.164062 15.757812 -8.675781 15.8125 -9.25 C 15.875 -9.832031 15.90625 -10.675781 15.90625 -11.78125 L 15.90625 -15.734375 L 25.578125 -15.734375 L 25.578125 -13.390625 C 25.578125 -8.648438 24.65625 -5.160156 22.8125 -2.921875 C 20.976562 -0.679688 17.820312 0.4375 13.34375 0.4375 Z M 15.90625 -24.296875 L 15.90625 -29.515625 C 15.90625 -32.441406 15.179688 -33.90625 13.734375 -33.90625 C 12.097656 -33.90625 11.28125 -32.441406 11.28125 -29.515625 L 11.28125 -24.296875 Z M 15.90625 -24.296875 "/></g></g></g><g fill="#6f3594" fill-opacity="1"><g transform="translate(205.550163, 275.5276)"><g><path d="M 13.453125 0.4375 C 9.117188 0.4375 5.988281 -0.632812 4.0625 -2.78125 C 2.132812 -4.925781 1.171875 -8.390625 1.171875 -13.171875 L 1.171875 -17.84375 L 10.5625 -17.84375 L 10.5625 -11.890625 C 10.5625 -9.523438 11.320312 -8.34375 12.84375 -8.34375 C 13.695312 -8.34375 14.289062 -8.59375 14.625 -9.09375 C 14.957031 -9.59375 15.125 -10.4375 15.125 -11.625 C 15.125 -13.175781 14.9375 -14.460938 14.5625 -15.484375 C 14.195312 -16.503906 13.722656 -17.351562 13.140625 -18.03125 C 12.566406 -18.71875 11.539062 -19.785156 10.0625 -21.234375 L 5.953125 -25.34375 C 2.765625 -28.457031 1.171875 -31.90625 1.171875 -35.6875 C 1.171875 -39.769531 2.101562 -42.875 3.96875 -45 C 5.84375 -47.132812 8.578125 -48.203125 12.171875 -48.203125 C 16.472656 -48.203125 19.566406 -47.0625 21.453125 -44.78125 C 23.347656 -42.5 24.296875 -38.929688 24.296875 -34.078125 L 14.5625 -34.078125 L 14.515625 -37.359375 C 14.515625 -37.984375 14.335938 -38.484375 13.984375 -38.859375 C 13.628906 -39.234375 13.140625 -39.421875 12.515625 -39.421875 C 11.765625 -39.421875 11.203125 -39.210938 10.828125 -38.796875 C 10.460938 -38.390625 10.28125 -37.835938 10.28125 -37.140625 C 10.28125 -35.578125 11.171875 -33.960938 12.953125 -32.296875 L 18.515625 -26.96875 C 19.804688 -25.707031 20.878906 -24.507812 21.734375 -23.375 C 22.585938 -22.25 23.273438 -20.914062 23.796875 -19.375 C 24.316406 -17.832031 24.578125 -16.003906 24.578125 -13.890625 C 24.578125 -9.191406 23.710938 -5.628906 21.984375 -3.203125 C 20.265625 -0.773438 17.421875 0.4375 13.453125 0.4375 Z M 13.453125 0.4375 "/></g></g></g><g fill="#6f3594" fill-opacity="1"><g transform="translate(231.17346, 275.5276)"><g><path d="M 1.953125 -48.03125 L 11.953125 -48.03125 L 11.953125 -36.6875 C 12.992188 -39.65625 14.976562 -41.140625 17.90625 -41.140625 C 20.644531 -41.140625 22.71875 -40.265625 24.125 -38.515625 C 25.53125 -36.773438 26.234375 -34.390625 26.234375 -31.359375 L 26.234375 0 L 16.515625 0 L 16.515625 -30.75 C 16.515625 -31.632812 16.304688 -32.351562 15.890625 -32.90625 C 15.484375 -33.46875 14.894531 -33.75 14.125 -33.75 C 13.457031 -33.75 12.925781 -33.457031 12.53125 -32.875 C 12.144531 -32.300781 11.953125 -31.609375 11.953125 -30.796875 L 11.953125 0 L 1.953125 0 Z M 1.953125 -48.03125 "/></g></g></g><g fill="#6f3594" fill-opacity="1"><g transform="translate(259.242359, 275.5276)"><g><path d="M 13.78125 0.4375 C 5.664062 0.4375 1.609375 -3.765625 1.609375 -12.171875 L 1.609375 -28.515625 C 1.609375 -32.367188 2.691406 -35.4375 4.859375 -37.71875 C 7.023438 -40 10 -41.140625 13.78125 -41.140625 C 17.5625 -41.140625 20.535156 -40 22.703125 -37.71875 C 24.878906 -35.4375 25.96875 -32.367188 25.96875 -28.515625 L 25.96875 -12.171875 C 25.96875 -3.765625 21.90625 0.4375 13.78125 0.4375 Z M 13.78125 -7.0625 C 14.5625 -7.0625 15.132812 -7.335938 15.5 -7.890625 C 15.875 -8.453125 16.0625 -9.210938 16.0625 -10.171875 L 16.0625 -30.078125 C 16.0625 -32.453125 15.300781 -33.640625 13.78125 -33.640625 C 12.269531 -33.640625 11.515625 -32.453125 11.515625 -30.078125 L 11.515625 -10.171875 C 11.515625 -9.210938 11.695312 -8.453125 12.0625 -7.890625 C 12.4375 -7.335938 13.007812 -7.0625 13.78125 -7.0625 Z M 13.78125 -7.0625 "/></g></g></g><g fill="#6f3594" fill-opacity="1"><g transform="translate(286.866609, 275.5276)"><g><path d="M 1.953125 -40.6875 L 11.84375 -40.6875 L 11.84375 -38.53125 C 13.25 -40.269531 15.191406 -41.140625 17.671875 -41.140625 C 20.828125 -41.140625 23.023438 -40.082031 24.265625 -37.96875 C 25.503906 -35.851562 26.125 -32.925781 26.125 -29.1875 L 26.125 -14.125 C 26.125 -10.9375 25.9375 -8.332031 25.5625 -6.3125 C 25.195312 -4.289062 24.382812 -2.660156 23.125 -1.421875 C 21.863281 -0.179688 19.957031 0.4375 17.40625 0.4375 C 14.957031 0.4375 13.101562 -0.242188 11.84375 -1.609375 L 11.84375 8.109375 L 1.953125 8.109375 Z M 14.171875 -7.109375 C 15.066406 -7.109375 15.640625 -7.515625 15.890625 -8.328125 C 16.148438 -9.148438 16.28125 -10.335938 16.28125 -11.890625 L 16.28125 -29.1875 C 16.28125 -30.59375 16.148438 -31.664062 15.890625 -32.40625 C 15.640625 -33.144531 15.050781 -33.515625 14.125 -33.515625 C 12.601562 -33.515625 11.84375 -32.109375 11.84375 -29.296875 L 11.84375 -11.453125 C 11.84375 -10.078125 12 -9.007812 12.3125 -8.25 C 12.625 -7.488281 13.242188 -7.109375 14.171875 -7.109375 Z M 14.171875 -7.109375 "/></g></g></g></svg>